name Walk2.mot
datacolumns 19
datarows 25
range 1.72200000 1.74600000
endheader

                time	   L_ground_force_vx	   L_ground_force_vy	   L_ground_force_vz	   L_ground_force_px	   L_ground_force_py	   L_ground_force_pz	   R_ground_force_vx	   R_ground_force_vy	   R_ground_force_vz	   R_ground_force_px	   R_ground_force_py	   R_ground_force_pz	   L_ground_torque_x	   L_ground_torque_y	   L_ground_torque_z	   R_ground_torque_x	   R_ground_torque_y	   R_ground_torque_z	
          1.72200000	          0.00000000	          0.00000000	          0.00000000	          0.00000000	          0.00000000	          0.00000000	         17.84853020	        727.27752368	         46.43291649	         -0.23557918	          0.00000000	         -0.05194686	          0.00000000	          0.00000000	          0.00000000	          0.00000000	          2.76995034	          0.00000000	
          1.72300000	          0.00000000	          0.00000000	          0.00000000	          0.00000000	          0.00000000	          0.00000000	         18.23570874	        728.51399133	         46.42875391	         -0.23526969	          0.00000000	         -0.05200265	          0.00000000	          0.00000000	          0.00000000	          0.00000000	          2.76124273	          0.00000000	
          1.72400000	          0.00000000	          0.00000000	          0.00000000	          0.00000000	          0.00000000	          0.00000000	         18.64504154	        729.72055715	         46.40975656	         -0.23497400	          0.00000000	         -0.05207604	          0.00000000	          0.00000000	          0.00000000	          0.00000000	          2.74310528	          0.00000000	
          1.72500000	          0.00000000	          0.00000000	          0.00000000	          0.00000000	          0.00000000	          0.00000000	         19.06021985	        730.93127293	         46.38480342	         -0.23470091	          0.00000000	         -0.05217599	          0.00000000	          0.00000000	          0.00000000	          0.00000000	          2.71586221	          0.00000000	
          1.72600000	          0.00000000	          0.00000000	          0.00000000	          0.00000000	          0.00000000	          0.00000000	         19.46711962	        732.15821716	         46.36364430	         -0.23443479	          0.00000000	         -0.05230579	          0.00000000	          0.00000000	          0.00000000	          0.00000000	          2.68396806	          0.00000000	
          1.72700000	          0.00000000	          0.00000000	          0.00000000	          0.00000000	          0.00000000	          0.00000000	         19.85844121	        733.39302825	         46.35954384	         -0.23414611	          0.00000000	         -0.05245711	          0.00000000	          0.00000000	          0.00000000	          0.00000000	          2.65347848	          0.00000000	
          1.72800000	          0.00000000	          0.00000000	          0.00000000	          0.00000000	          0.00000000	          0.00000000	         20.23694052	        734.64397711	         46.38242470	         -0.23381854	          0.00000000	         -0.05260410	          0.00000000	          0.00000000	          0.00000000	          0.00000000	          2.62599503	          0.00000000	
          1.72900000	          0.00000000	          0.00000000	          0.00000000	          0.00000000	          0.00000000	          0.00000000	         20.61689398	        735.94404219	         46.43064253	         -0.23345573	          0.00000000	         -0.05270876	          0.00000000	          0.00000000	          0.00000000	          0.00000000	          2.60027439	          0.00000000	
          1.73000000	          0.00000000	          0.00000000	          0.00000000	          0.00000000	          0.00000000	          0.00000000	         21.01366168	        737.29382966	         46.49113240	         -0.23307354	          0.00000000	         -0.05275558	          0.00000000	          0.00000000	          0.00000000	          0.00000000	          2.57740551	          0.00000000	
          1.73100000	          0.00000000	          0.00000000	          0.00000000	          0.00000000	          0.00000000	          0.00000000	         21.42972494	        738.63093066	         46.54910078	         -0.23269792	          0.00000000	         -0.05277004	          0.00000000	          0.00000000	          0.00000000	          0.00000000	          2.56007909	          0.00000000	
          1.73200000	          0.00000000	          0.00000000	          0.00000000	          0.00000000	          0.00000000	          0.00000000	         21.85566838	        739.89454302	         46.59705106	         -0.23235875	          0.00000000	         -0.05278769	          0.00000000	          0.00000000	          0.00000000	          0.00000000	          2.54927159	          0.00000000	
          1.73300000	          0.00000000	          0.00000000	          0.00000000	          0.00000000	          0.00000000	          0.00000000	         22.28104854	        741.09916072	         46.63463998	         -0.23207376	          0.00000000	         -0.05282079	          0.00000000	          0.00000000	          0.00000000	          0.00000000	          2.54360547	          0.00000000	
          1.73400000	          0.00000000	          0.00000000	          0.00000000	          0.00000000	          0.00000000	          0.00000000	         22.69862363	        742.31000739	         46.66653039	         -0.23183559	          0.00000000	         -0.05285554	          0.00000000	          0.00000000	          0.00000000	          0.00000000	          2.53937070	          0.00000000	
          1.73500000	          0.00000000	          0.00000000	          0.00000000	          0.00000000	          0.00000000	          0.00000000	         23.10704026	        743.55642697	         46.69938737	         -0.23161511	          0.00000000	         -0.05286979	          0.00000000	          0.00000000	          0.00000000	          0.00000000	          2.53044517	          0.00000000	
          1.73600000	          0.00000000	          0.00000000	          0.00000000	          0.00000000	          0.00000000	          0.00000000	         23.51619088	        744.80137035	         46.73521767	         -0.23137800	          0.00000000	         -0.05285865	          0.00000000	          0.00000000	          0.00000000	          0.00000000	          2.51169921	          0.00000000	
          1.73700000	          0.00000000	          0.00000000	          0.00000000	          0.00000000	          0.00000000	          0.00000000	         23.94322109	        745.98366301	         46.77257411	         -0.23109819	          0.00000000	         -0.05283788	          0.00000000	          0.00000000	          0.00000000	          0.00000000	          2.48428015	          0.00000000	
          1.73800000	          0.00000000	          0.00000000	          0.00000000	          0.00000000	          0.00000000	          0.00000000	         24.39915425	        747.06963105	         46.81381930	         -0.23076734	          0.00000000	         -0.05282367	          0.00000000	          0.00000000	          0.00000000	          0.00000000	          2.45538460	          0.00000000	
          1.73900000	          0.00000000	          0.00000000	          0.00000000	          0.00000000	          0.00000000	          0.00000000	         24.88106285	        748.08459501	         46.86505666	         -0.23040164	          0.00000000	         -0.05282462	          0.00000000	          0.00000000	          0.00000000	          0.00000000	          2.43238226	          0.00000000	
          1.74000000	          0.00000000	          0.00000000	          0.00000000	          0.00000000	          0.00000000	          0.00000000	         25.37669346	        749.09776282	         46.93280333	         -0.23003349	          0.00000000	         -0.05284803	          0.00000000	          0.00000000	          0.00000000	          0.00000000	          2.41909932	          0.00000000	
          1.74100000	          0.00000000	          0.00000000	          0.00000000	          0.00000000	          0.00000000	          0.00000000	         25.87349314	        750.16523094	         47.02334961	         -0.22969002	          0.00000000	         -0.05290470	          0.00000000	          0.00000000	          0.00000000	          0.00000000	          2.41625199	          0.00000000	
          1.74200000	          0.00000000	          0.00000000	          0.00000000	          0.00000000	          0.00000000	          0.00000000	         26.36206884	        751.30147439	         47.13967510	         -0.22937827	          0.00000000	         -0.05299884	          0.00000000	          0.00000000	          0.00000000	          0.00000000	          2.42097340	          0.00000000	
          1.74300000	          0.00000000	          0.00000000	          0.00000000	          0.00000000	          0.00000000	          0.00000000	         26.83417502	        752.49286175	         47.27598117	         -0.22908744	          0.00000000	         -0.05310623	          0.00000000	          0.00000000	          0.00000000	          0.00000000	          2.42552750	          0.00000000	
          1.74400000	          0.00000000	          0.00000000	          0.00000000	          0.00000000	          0.00000000	          0.00000000	         27.28431737	        753.71197741	         47.41742125	         -0.22880397	          0.00000000	         -0.05318199	          0.00000000	          0.00000000	          0.00000000	          0.00000000	          2.42077072	          0.00000000	
          1.74500000	          0.00000000	          0.00000000	          0.00000000	          0.00000000	          0.00000000	          0.00000000	         27.71764524	        754.93389090	         47.54786951	         -0.22852628	          0.00000000	         -0.05320428	          0.00000000	          0.00000000	          0.00000000	          0.00000000	          2.40300208	          0.00000000	
          1.74600000	          0.00000000	          0.00000000	          0.00000000	          0.00000000	          0.00000000	          0.00000000	         28.15307228	        756.13772837	         47.65958823	         -0.22826060	          0.00000000	         -0.05318732	          0.00000000	          0.00000000	          0.00000000	          0.00000000	          2.37610610	          0.00000000	
